<svg width="80" height="80" viewBox="0 0 80 80" fill="none" xmlns="http://www.w3.org/2000/svg">
<g id="cutlery 1">
<path id="Vector" d="M30.7672 48.877H22.4609C19.8761 48.877 17.7734 50.9796 17.7734 53.5645V68.3466C17.7734 73.2214 21.7389 77.1875 26.6138 77.1875C31.4887 77.1875 35.4547 73.2214 35.4547 68.3466V53.5645C35.4547 50.9796 33.352 48.877 30.7672 48.877Z" fill="black"/>
<path id="Vector_2" d="M62.1362 48.877H53.8293C51.2445 48.877 49.1418 50.9796 49.1418 53.5645V68.3466C49.1418 73.2214 53.1079 77.1875 57.9828 77.1875C62.8577 77.1875 66.8237 73.2214 66.8237 68.3466V53.5645C66.8237 50.9796 64.7211 48.877 62.1362 48.877Z" fill="black"/>
<path id="Vector_3" d="M53.6987 37.912V47.0152C54.3547 47.0132 62.6562 46.9226 63.0737 47.0968V3.75C63.0737 3.23243 62.6538 2.8125 62.1362 2.8125H60.6201C57.9108 2.8125 55.6055 4.65881 55.014 7.30286L49.718 30.9686C49.361 32.5635 49.6625 34.1888 50.567 35.5457C51.3159 36.6687 52.4304 37.5037 53.6987 37.912Z" fill="black"/>
<path id="Vector_4" d="M36.0437 2.85889C34.4092 3.125 33.1763 4.6405 33.1763 6.38366V15.4852C33.1763 16.3202 32.6202 17.0398 31.8835 17.1594C31.4105 17.2351 30.9564 17.1106 30.6024 16.8097C30.2521 16.5118 30.0513 16.0779 30.0513 15.6189V6.38366C30.0513 4.63927 28.8184 3.12439 27.1838 2.85889C26.1768 2.6947 25.1562 2.97607 24.3872 3.63099C23.6175 4.2859 23.1763 5.24049 23.1763 6.25V15.4852C23.1763 16.3202 22.6202 17.0398 21.8835 17.1594C21.4099 17.2351 20.9564 17.1106 20.6024 16.8097C20.2521 16.5118 20.0513 16.0779 20.0513 15.6189V6.38366C20.0513 4.63927 18.8183 3.12439 17.1838 2.85889C16.178 2.6947 15.1562 2.97607 14.3872 3.63099C13.6175 4.2859 13.1763 5.24049 13.1763 6.25V21.676C13.1763 26.5778 15.7397 31.1688 19.8669 33.6572C21.1566 34.4354 21.9269 35.7538 21.9269 37.1838V47.056C22.4739 46.9645 30.7545 46.9644 31.3019 47.0561V37.2382C31.3019 35.7892 32.099 34.4543 33.4338 33.667C37.5159 31.2604 40.0513 26.8292 40.0513 22.1039V6.25C40.0513 5.24047 39.61 4.28589 38.8403 3.63099C38.0713 2.97669 37.0514 2.69592 36.0437 2.85889Z" fill="black"/>
</g>
</svg>
