<svg width="80" height="80" viewBox="0 0 80 80" fill="none" xmlns="http://www.w3.org/2000/svg">
<g id="heart (1) 1">
<g id="Group">
<path id="Vector" fill-rule="evenodd" clip-rule="evenodd" d="M66.6667 19.1556C67.3004 19.2148 67.8893 19.5085 68.3179 19.9792C68.7466 20.4498 68.9842 21.0634 68.9842 21.7C68.9842 22.3366 68.7466 22.9502 68.3179 23.4208C67.8893 23.8914 67.3004 24.1851 66.6667 24.2444C66.3125 24.2776 65.9554 24.2364 65.6181 24.1236C65.2808 24.0108 64.9707 23.8288 64.7078 23.5893C64.4448 23.3498 64.2348 23.0581 64.091 22.7328C63.9473 22.4074 63.873 22.0557 63.873 21.7C63.873 21.3443 63.9473 20.9926 64.091 20.6672C64.2348 20.3419 64.4448 20.0502 64.7078 19.8107C64.9707 19.5712 65.2808 19.3892 65.6181 19.2764C65.9554 19.1636 66.3125 19.1224 66.6667 19.1556Z" fill="black"/>
<path id="Vector_2" fill-rule="evenodd" clip-rule="evenodd" d="M11.4889 61.2889C10.9834 61.2889 10.4893 61.139 10.0691 60.8582C9.64883 60.5774 9.32127 60.1783 9.12785 59.7113C8.93443 59.2444 8.88382 58.7305 8.98242 58.2348C9.08103 57.7391 9.32442 57.2837 9.68182 56.9263C10.0392 56.5689 10.4946 56.3255 10.9903 56.2269C11.486 56.1283 11.9999 56.1789 12.4668 56.3723C12.9338 56.5657 13.3329 56.8933 13.6137 57.3136C13.8946 57.7338 14.0444 58.2279 14.0444 58.7334C14.0444 59.4111 13.7752 60.0611 13.2959 60.5404C12.8167 61.0197 12.1667 61.2889 11.4889 61.2889Z" fill="black"/>
<path id="Vector_3" fill-rule="evenodd" clip-rule="evenodd" d="M52.2 26.6667C49.5567 24.2022 46.2165 22.6147 42.6364 22.1214C39.0563 21.6282 35.4112 22.2533 32.2 23.9111C25.5333 27.4889 21.6667 36.2889 22.5333 47.0444C18.7591 45.2145 15.3482 42.7147 12.4667 39.6667C4.93333 31.6445 2.44444 22.2222 6.11111 16.3333C9.77777 10.4444 19.6 7.71112 27.0444 15.7333C29.4667 5.08889 39.2889 2.40001 45.4444 5.80001C51.1111 8.88889 53.7333 17.0445 52.2 26.6667Z" fill="black"/>
<path id="Vector_4" fill-rule="evenodd" clip-rule="evenodd" d="M67.6222 62.2222C62.2222 68.2445 51.5556 72.8889 42.9333 75.5556C37.5556 69.7111 31.4889 61.8 29.0889 54.5556C25.6222 45.2445 27.3778 31.6445 34.5333 28.3556C37.2948 26.9634 40.4751 26.6473 43.4565 27.4686C46.438 28.2899 49.0077 30.1901 50.6667 32.8C51.752 34.4705 52.5065 36.3339 52.8889 38.2889C53.2444 37.9111 53.6445 37.5778 53.9333 37.2445C61.2 30.5778 70.3333 33.1778 73.9333 38.9111C77.5333 44.6445 75.0445 54.1778 67.6222 62.2222Z" fill="black"/>
<path id="Vector_5" fill-rule="evenodd" clip-rule="evenodd" d="M63 6.84445C62.9988 6.63884 63.0597 6.43766 63.1747 6.26719C63.2897 6.09672 63.4534 5.96488 63.6444 5.8889C63.8347 5.80342 64.0473 5.78104 64.2512 5.82502C64.4551 5.869 64.6396 5.97703 64.7778 6.13334L65.7778 7.24445C65.877 7.3512 65.9974 7.43601 66.1314 7.49341C66.2653 7.55082 66.4098 7.57956 66.5555 7.57778H68.0444C68.2531 7.56567 68.4603 7.61924 68.6369 7.73096C68.8136 7.84268 68.9508 8.00695 69.0292 8.20067C69.1077 8.39439 69.1235 8.60783 69.0744 8.81099C69.0253 9.01415 68.9138 9.19683 68.7555 9.33334L67.6667 10.3333C67.5564 10.4297 67.4692 10.5497 67.4115 10.6843C67.3538 10.8189 67.3271 10.9648 67.3333 11.1111V12.6C67.338 12.8082 67.279 13.0128 67.1642 13.1865C67.0494 13.3601 66.8843 13.4947 66.691 13.572C66.4977 13.6493 66.2854 13.6658 66.0825 13.6191C65.8796 13.5725 65.6957 13.4651 65.5555 13.3111L64.5555 12.2222C64.4591 12.112 64.3392 12.0248 64.2046 11.9671C64.07 11.9094 63.9241 11.8827 63.7778 11.8889H62.2889C62.0802 11.8915 61.8755 11.8315 61.7012 11.7166C61.5269 11.6017 61.391 11.4373 61.3111 11.2445C61.2317 11.0513 61.2147 10.8382 61.2625 10.635C61.3103 10.4317 61.4206 10.2485 61.5778 10.1111L62.6667 9.11112C62.7769 9.01472 62.8641 8.89478 62.9218 8.76015C62.9795 8.62553 63.0062 8.47967 63 8.33334C63 7.97778 63 7.42223 63 6.84445Z" fill="black"/>
<path id="Vector_6" fill-rule="evenodd" clip-rule="evenodd" d="M21.4444 69.8222C21.3708 70.016 21.2399 70.1829 21.0693 70.3006C20.8986 70.4183 20.6962 70.4813 20.4889 70.4813C20.2815 70.4813 20.0791 70.4183 19.9085 70.3006C19.7378 70.1829 19.607 70.016 19.5333 69.8222L19.0222 68.4222C18.9074 68.1521 18.6924 67.937 18.4222 67.8222L17.0222 67.3111C16.8284 67.2375 16.6616 67.1066 16.5439 66.936C16.4261 66.7653 16.3631 66.5629 16.3631 66.3556C16.3631 66.1482 16.4261 65.9458 16.5439 65.7752C16.6616 65.6045 16.8284 65.4737 17.0222 65.4L18.4222 64.8889C18.5601 64.839 18.6853 64.7594 18.789 64.6557C18.8927 64.552 18.9723 64.4268 19.0222 64.2889C19.1555 63.9556 19.3333 63.4445 19.5333 62.9111C19.607 62.7173 19.7378 62.5505 19.9085 62.4328C20.0791 62.3151 20.2815 62.252 20.4889 62.252C20.6962 62.252 20.8986 62.3151 21.0693 62.4328C21.2399 62.5505 21.3708 62.7173 21.4444 62.9111C21.6444 63.4445 21.8444 63.9556 21.9555 64.2889C22.0054 64.4268 22.0851 64.552 22.1887 64.6557C22.2924 64.7594 22.4177 64.839 22.5555 64.8889L23.9555 65.4C24.1493 65.4737 24.3162 65.6045 24.4339 65.7752C24.5516 65.9458 24.6146 66.1482 24.6146 66.3556C24.6146 66.5629 24.5516 66.7653 24.4339 66.936C24.3162 67.1066 24.1493 67.2375 23.9555 67.3111L22.5555 67.8222C22.2854 67.937 22.0703 68.1521 21.9555 68.4222C21.8444 68.7778 21.6444 69.2889 21.4444 69.8222Z" fill="black"/>
</g>
</g>
</svg>
