<svg width="80" height="80" viewBox="0 0 80 80" fill="none" xmlns="http://www.w3.org/2000/svg">
<g id="museum 1">
<g id="Group">
<path id="Vector" d="M27.5587 17.0109C28.8532 17.0109 29.9025 15.9616 29.9025 14.6672C29.9025 13.3728 28.8532 12.3234 27.5587 12.3234C26.2643 12.3234 25.215 13.3728 25.215 14.6672C25.215 15.9616 26.2643 17.0109 27.5587 17.0109Z" fill="black"/>
<path id="Vector_2" d="M34.6431 35.6312L51.5806 20.1547L70.4931 36.2109L70.6072 0H9.54937L9.43218 37.3656L22.7087 28.6859L34.6431 35.6312ZM20.5275 14.6672C20.5275 10.7906 23.6822 7.63594 27.5587 7.63594C31.4353 7.63594 34.59 10.7906 34.59 14.6672C34.59 18.5438 31.4353 21.6984 27.5587 21.6984C23.6822 21.6984 20.5275 18.5438 20.5275 14.6672Z" fill="black"/>
<path id="Vector_3" d="M70.4747 42.3433L51.6942 26.4003L35.2628 41.4161L22.8517 34.1922L9.41484 42.9777L9.39312 49.9424H70.4509L70.4747 42.3433Z" fill="black"/>
<path id="Vector_4" d="M70.5995 75.3125V55.1426H65.912V59.8147C63.6955 60.785 61.2758 61.2934 58.8373 61.2934C56.3989 61.2934 53.9791 60.7851 51.7623 59.8145V55.1426H47.0748V59.8147C44.8581 60.7851 42.4384 61.2936 40.0003 61.2936C37.5619 61.2936 35.142 60.7851 32.9253 59.8145V55.1426H28.2378V59.8147C26.0209 60.7851 23.6012 61.2936 21.1631 61.2936C18.7247 61.2936 16.305 60.7851 14.0883 59.8145V55.1425H9.40078V75.3125H6.27578V80H17.2133V75.3125H14.0883V64.8316C16.3594 65.5886 18.7547 65.9812 21.1631 65.9812C23.5716 65.9812 25.9667 65.5887 28.2378 64.8316V75.3125H25.1128V80H36.0503V75.3125H32.9253V64.8314C35.1964 65.5886 37.5919 65.9811 40.0003 65.9811C42.4086 65.9811 44.8039 65.5886 47.0748 64.8316V75.3125H43.9498V80H54.8873V75.3125H51.7623V64.8314C54.0334 65.5886 56.4289 65.9809 58.8373 65.9809C61.2459 65.9809 63.6412 65.5884 65.912 64.8314V75.3125H62.787V80H73.7245V75.3125H70.5995Z" fill="black"/>
</g>
</g>
</svg>
