<svg width="80" height="80" viewBox="0 0 80 80" fill="none" xmlns="http://www.w3.org/2000/svg">
<g id="music (1) 1" clip-path="url(#clip0_11_2030)">
<g id="Group">
<path id="Vector" d="M44.0792 34.1358V63.303C42.8313 62.6324 41.4055 62.2518 39.8924 62.2518C34.9993 62.2518 31.0182 66.2328 31.0182 71.1258C31.0182 76.019 34.9993 80 39.8924 80C44.7856 80 48.7666 76.019 48.7666 71.1258V49.4732L75.3117 47.1423V60.5604C74.0637 59.8898 72.638 59.5092 71.1249 59.5092C66.2317 59.5092 62.2507 63.4902 62.2507 68.3834C62.2507 73.2766 66.2317 77.2574 71.1249 77.2574C76.0181 77.2574 79.9991 73.2764 79.9991 68.3834V30.9817L44.0792 34.1358Z" fill="black"/>
<path id="Vector_2" d="M39.0603 29.5973V0L10.1361 2.53979V24.8326C9.29254 24.4981 8.37334 24.314 7.41195 24.314C3.32532 24.314 0.000549316 27.6388 0.000549316 31.7254C0.000549316 35.812 3.32517 39.1368 7.41195 39.1368C11.4987 39.1368 14.8235 35.812 14.8235 31.7254V15.8723L34.3729 14.1556V22.7044C33.5294 22.3698 32.6102 22.1858 31.6488 22.1858C27.5621 22.1858 24.2374 25.5105 24.2374 29.5972C24.2374 33.6838 27.562 37.0086 31.6488 37.0086C35.7356 37.0086 39.0603 33.684 39.0603 29.5973Z" fill="black"/>
<path id="Vector_3" d="M59.6953 9.89587H64.3827V14.5836H59.6953V9.89587Z" fill="black"/>
<path id="Vector_4" d="M59.6953 19.2713H64.3827V23.959H59.6953V19.2713Z" fill="black"/>
<path id="Vector_5" d="M55.0076 14.5836H59.695V19.2713H55.0076V14.5836Z" fill="black"/>
<path id="Vector_6" d="M64.383 14.5836H69.0704V19.2713H64.383V14.5836Z" fill="black"/>
<path id="Vector_7" d="M15.6173 65.4209H20.3047V70.1086H15.6173V65.4209Z" fill="black"/>
<path id="Vector_8" d="M15.6173 56.0455H20.3047V60.7332H15.6173V56.0455Z" fill="black"/>
<path id="Vector_9" d="M20.305 60.7332H24.9924V65.4209H20.305V60.7332Z" fill="black"/>
<path id="Vector_10" d="M10.9296 60.7332H15.617V65.4209H10.9296V60.7332Z" fill="black"/>
</g>
</g>
<defs>
<clipPath id="clip0_11_2030">
<rect width="80" height="80" fill="white"/>
</clipPath>
</defs>
</svg>
