<svg width="80" height="80" viewBox="0 0 80 80" fill="none" xmlns="http://www.w3.org/2000/svg">
<g id="snowed-mountains 1" clip-path="url(#clip0_14_2253)">
<path id="Vector" d="M79.2096 64.0865C73.2295 55.6613 54.89 29.6093 54.89 29.6093C54.451 28.9841 53.7584 28.5798 52.9982 28.5024C52.2335 28.4287 51.4794 28.6807 50.921 29.2025L46.1153 33.701L34.8385 12.7715C34.3812 11.9268 33.5057 11.3942 32.5446 11.3813C31.6009 11.3389 30.6918 11.8762 30.2137 12.7083L0.351301 64.6563C-0.11888 65.4755 -0.116267 66.483 0.353914 67.3007C0.829321 68.1173 1.70289 68.6211 2.64586 68.6211H77.3029C77.321 68.6185 77.3391 68.6198 77.354 68.6211C78.8171 68.6211 80 67.4366 80 65.9754C80 65.2351 79.6056 64.6446 79.2096 64.0865ZM47.2263 39.9113L52.3167 35.143L62.4377 49.4911L53.8512 40.5471C53.7117 40.4035 53.5205 40.3207 53.3188 40.3183C53.1229 40.317 52.9289 40.3957 52.787 40.5368L46.6629 46.6529C46.4508 46.8659 46.1303 46.9296 45.8516 46.8131C45.5726 46.698 45.3917 46.4256 45.3943 46.1244L45.4176 40.5626C46.0791 40.5626 46.7302 40.3728 47.2263 39.9113ZM32.4332 19.4662L38.9989 31.648L34.0686 35.9967C33.9162 36.1326 33.7119 36.1984 33.5109 36.1802C33.3066 36.1621 33.118 36.06 32.994 35.8998L29.8337 31.8895C29.684 31.6997 29.4511 31.5937 29.2112 31.6068C28.968 31.6197 28.746 31.75 28.6196 31.9543L23.8419 39.5729C23.6921 39.8092 23.423 39.9437 23.1441 39.9177C22.8651 39.892 22.6219 39.7111 22.5189 39.4514L21.8782 37.8287L32.4332 19.4662Z" fill="black"/>
</g>
<defs>
<clipPath id="clip0_14_2253">
<rect width="80" height="80" fill="white"/>
</clipPath>
</defs>
</svg>
